<svg fill="#ffffff" xmlns="http://www.w3.org/2000/svg" viewBox="0 0 525 525">
                                    <g id="Kennel">
                                        <path class="d"
                                            d="M234.86,256.28h42.28a22,22,0,0,0,43-6.5,22.09,22.09,0,0,0-.91-6.26,21.6,21.6,0,0,0-4.37-8.06A22,22,0,1,0,277,215.13H235a22,22,0,1,0-37.82,20.33,21.6,21.6,0,0,0-4.37,8.06,22,22,0,0,0,21.05,28.23A21.85,21.85,0,0,0,234.86,256.28Zm-11-6.18a10,10,0,1,1-17.72-6.58,10.17,10.17,0,0,1,3.36-2.68,6,6,0,0,0,0-10.76,10,10,0,1,1,14.37-9,6,6,0,0,0,6,6h52.34a6,6,0,0,0,6-6,10,10,0,1,1,14.37,9,6,6,0,0,0,0,10.76,10.17,10.17,0,0,1,3.36,2.68,10,10,0,1,1-17.72,6.58,6,6,0,0,0-6-5.82H229.82A6,6,0,0,0,223.82,250.1Z">
                                        </path>
                                        <path class="d"
                                            d="M460.67,454.72,447,378.24h-49.1V260.68l22.81,21.77,35.47-33.86L256,57.5,55.81,248.6l35.47,33.86,22.81-21.77v175.6H330.8l-3.29,18.43ZM437,390.24l9.38,52.48H341.84l1.15-6.43,1.08-6,1.07-6,3.77-21.1,1.07-6,1.07-6,.17-.95H437ZM114.09,244.1,91.28,265.87,73.19,248.6,256,74.09l182.81,174.5-18.09,17.27-22.81-21.77-.59-.57L256,108.64,114.7,243.52Zm91,180.19h-79v-21.1h79Zm0-33.1h-79V249.24l6-5.72L256,125.23,379.94,243.52l6,5.7v129H341.18l-2.32,12.95H306.94v-55.5a50.94,50.94,0,0,0-101.88,0Zm89.88,33H217.06V335.69a38.94,38.94,0,0,1,77.88,0Zm12,.09v-21.1h29.78L333,424.29Z">
                                        </path>
                                    </g>
                                </svg>